<mxfile host="app.diagrams.net" modified="2023-06-29T20:34:11.509Z" agent="Mozilla/5.0 (Macintosh; Intel Mac OS X 10_15_7) AppleWebKit/605.1.15 (KHTML, like Gecko) Version/16.1 Safari/605.1.15" etag="dqXZqEltcZSeA052Y7n7" version="21.4.0" type="github" pages="2">
  <diagram name="Network BR-C2" id="WLB4W7FoqpOxXbgukPIv">
    <mxGraphModel dx="621" dy="461" grid="1" gridSize="10" guides="1" tooltips="1" connect="1" arrows="1" fold="1" page="1" pageScale="1" pageWidth="1169" pageHeight="827" math="0" shadow="0">
      <root>
        <mxCell id="0" />
        <mxCell id="1" parent="0" />
        <mxCell id="LHUtdxbBdhvLTkgLUQPW-53" style="edgeStyle=orthogonalEdgeStyle;rounded=0;orthogonalLoop=1;jettySize=auto;html=1;endArrow=none;endFill=0;fillColor=#ffe6cc;strokeColor=#d79b00;strokeWidth=3;entryX=0.5;entryY=1;entryDx=0;entryDy=0;entryPerimeter=0;" parent="1" source="LHUtdxbBdhvLTkgLUQPW-1" edge="1">
          <mxGeometry relative="1" as="geometry">
            <mxPoint x="1270" y="477" as="targetPoint" />
            <Array as="points">
              <mxPoint x="1250" y="565" />
              <mxPoint x="1250" y="477" />
            </Array>
          </mxGeometry>
        </mxCell>
        <mxCell id="LHUtdxbBdhvLTkgLUQPW-86" style="edgeStyle=orthogonalEdgeStyle;rounded=0;orthogonalLoop=1;jettySize=auto;html=1;entryX=0;entryY=0.5;entryDx=0;entryDy=0;entryPerimeter=0;strokeWidth=3;endArrow=none;endFill=0;fillColor=#dae8fc;strokeColor=#6c8ebf;" parent="1" source="LHUtdxbBdhvLTkgLUQPW-1" target="LHUtdxbBdhvLTkgLUQPW-85" edge="1">
          <mxGeometry relative="1" as="geometry">
            <Array as="points">
              <mxPoint x="400" y="640" />
              <mxPoint x="910" y="640" />
            </Array>
          </mxGeometry>
        </mxCell>
        <mxCell id="LHUtdxbBdhvLTkgLUQPW-1" value="" style="fontColor=#0066CC;verticalAlign=top;verticalLabelPosition=bottom;labelPosition=center;align=center;html=1;outlineConnect=0;fillColor=#CCCCCC;strokeColor=#6881B3;gradientColor=none;gradientDirection=north;strokeWidth=2;shape=mxgraph.networks.switch;" parent="1" vertex="1">
          <mxGeometry x="325" y="550" width="100" height="30" as="geometry" />
        </mxCell>
        <mxCell id="LHUtdxbBdhvLTkgLUQPW-30" value="" style="edgeStyle=orthogonalEdgeStyle;rounded=0;orthogonalLoop=1;jettySize=auto;html=1;endArrow=none;endFill=0;fillColor=#ffe6cc;strokeColor=#d79b00;strokeWidth=3;" parent="1" source="LHUtdxbBdhvLTkgLUQPW-2" target="LHUtdxbBdhvLTkgLUQPW-1" edge="1">
          <mxGeometry relative="1" as="geometry" />
        </mxCell>
        <mxCell id="LHUtdxbBdhvLTkgLUQPW-2" value="" style="fontColor=#0066CC;verticalAlign=top;verticalLabelPosition=bottom;labelPosition=center;align=center;html=1;outlineConnect=0;fillColor=#CCCCCC;strokeColor=#6881B3;gradientColor=none;gradientDirection=north;strokeWidth=2;shape=mxgraph.networks.router;" parent="1" vertex="1">
          <mxGeometry x="325" y="447" width="100" height="30" as="geometry" />
        </mxCell>
        <mxCell id="LHUtdxbBdhvLTkgLUQPW-6" style="edgeStyle=orthogonalEdgeStyle;rounded=0;orthogonalLoop=1;jettySize=auto;html=1;entryX=0.335;entryY=0.017;entryDx=0;entryDy=0;entryPerimeter=0;strokeColor=#6c8ebf;endArrow=none;endFill=0;startArrow=none;startFill=0;dashed=1;strokeWidth=2;fillColor=#dae8fc;dashPattern=8 8;" parent="1" source="LHUtdxbBdhvLTkgLUQPW-3" target="LHUtdxbBdhvLTkgLUQPW-4" edge="1">
          <mxGeometry relative="1" as="geometry">
            <Array as="points">
              <mxPoint x="120" y="107" />
              <mxPoint x="265" y="107" />
              <mxPoint x="265" y="188" />
            </Array>
          </mxGeometry>
        </mxCell>
        <mxCell id="LHUtdxbBdhvLTkgLUQPW-9" style="edgeStyle=orthogonalEdgeStyle;rounded=0;orthogonalLoop=1;jettySize=auto;html=1;exitX=0.5;exitY=0;exitDx=0;exitDy=0;exitPerimeter=0;entryX=0.5;entryY=0;entryDx=0;entryDy=0;endArrow=none;endFill=0;dashed=1;strokeWidth=2;fillColor=#dae8fc;strokeColor=#6c8ebf;dashPattern=8 8;" parent="1" source="LHUtdxbBdhvLTkgLUQPW-3" target="LHUtdxbBdhvLTkgLUQPW-7" edge="1">
          <mxGeometry relative="1" as="geometry">
            <Array as="points">
              <mxPoint x="100" y="182" />
              <mxPoint x="100" y="87" />
              <mxPoint x="500" y="87" />
            </Array>
          </mxGeometry>
        </mxCell>
        <mxCell id="LHUtdxbBdhvLTkgLUQPW-10" style="edgeStyle=orthogonalEdgeStyle;rounded=0;orthogonalLoop=1;jettySize=auto;html=1;entryX=0.5;entryY=0;entryDx=0;entryDy=0;endArrow=none;endFill=0;dashed=1;strokeWidth=2;fillColor=#dae8fc;strokeColor=#6c8ebf;dashPattern=8 8;" parent="1" source="LHUtdxbBdhvLTkgLUQPW-3" target="LHUtdxbBdhvLTkgLUQPW-8" edge="1">
          <mxGeometry relative="1" as="geometry">
            <Array as="points">
              <mxPoint x="75" y="67" />
              <mxPoint x="640" y="67" />
            </Array>
          </mxGeometry>
        </mxCell>
        <mxCell id="LHUtdxbBdhvLTkgLUQPW-17" style="edgeStyle=orthogonalEdgeStyle;rounded=0;orthogonalLoop=1;jettySize=auto;html=1;entryX=0.5;entryY=0;entryDx=0;entryDy=0;endArrow=none;endFill=0;dashed=1;strokeWidth=2;fillColor=#dae8fc;strokeColor=#6c8ebf;dashPattern=8 8;" parent="1" source="LHUtdxbBdhvLTkgLUQPW-3" target="LHUtdxbBdhvLTkgLUQPW-16" edge="1">
          <mxGeometry relative="1" as="geometry">
            <Array as="points">
              <mxPoint x="55" y="47" />
              <mxPoint x="780" y="47" />
            </Array>
          </mxGeometry>
        </mxCell>
        <mxCell id="LHUtdxbBdhvLTkgLUQPW-23" style="edgeStyle=orthogonalEdgeStyle;rounded=0;orthogonalLoop=1;jettySize=auto;html=1;entryX=0;entryY=0.5;entryDx=0;entryDy=0;entryPerimeter=0;endArrow=none;endFill=0;fillColor=#ffe6cc;strokeColor=#d79b00;strokeWidth=3;" parent="1" source="LHUtdxbBdhvLTkgLUQPW-3" target="LHUtdxbBdhvLTkgLUQPW-2" edge="1">
          <mxGeometry relative="1" as="geometry">
            <Array as="points">
              <mxPoint x="165" y="217" />
              <mxPoint x="165" y="462" />
            </Array>
          </mxGeometry>
        </mxCell>
        <mxCell id="LHUtdxbBdhvLTkgLUQPW-3" value="CPU Line control 36&lt;br style=&quot;font-size: 14px;&quot;&gt;SLC 5/05 (1747-L551)&lt;br style=&quot;font-size: 14px;&quot;&gt;IP:&lt;b style=&quot;font-size: 14px;&quot;&gt;&lt;font style=&quot;font-size: 14px;&quot;&gt;192.168.100.11&lt;/font&gt;&lt;/b&gt;" style="fontColor=#0066CC;verticalAlign=top;verticalLabelPosition=bottom;labelPosition=center;align=center;html=1;outlineConnect=0;fillColor=#CCCCCC;strokeColor=#6881B3;gradientColor=none;gradientDirection=north;strokeWidth=2;shape=mxgraph.networks.ups_enterprise;fontSize=14;" parent="1" vertex="1">
          <mxGeometry x="35" y="182" width="100" height="70" as="geometry" />
        </mxCell>
        <mxCell id="LHUtdxbBdhvLTkgLUQPW-11" style="edgeStyle=orthogonalEdgeStyle;rounded=0;orthogonalLoop=1;jettySize=auto;html=1;endArrow=none;endFill=0;fillColor=#d80073;strokeColor=#A50040;strokeWidth=3;" parent="1" source="LHUtdxbBdhvLTkgLUQPW-4" target="LHUtdxbBdhvLTkgLUQPW-5" edge="1">
          <mxGeometry relative="1" as="geometry" />
        </mxCell>
        <mxCell id="LHUtdxbBdhvLTkgLUQPW-4" value="CNC&lt;br&gt;VSM" style="rounded=0;whiteSpace=wrap;html=1;" parent="1" vertex="1">
          <mxGeometry x="205" y="187" width="120" height="60" as="geometry" />
        </mxCell>
        <mxCell id="LHUtdxbBdhvLTkgLUQPW-20" style="edgeStyle=orthogonalEdgeStyle;rounded=0;orthogonalLoop=1;jettySize=auto;html=1;endArrow=none;endFill=0;exitX=0.85;exitY=0.5;exitDx=0;exitDy=0;exitPerimeter=0;fillColor=#ffe6cc;strokeColor=#d79b00;strokeWidth=3;" parent="1" source="LHUtdxbBdhvLTkgLUQPW-5" target="LHUtdxbBdhvLTkgLUQPW-2" edge="1">
          <mxGeometry relative="1" as="geometry">
            <Array as="points">
              <mxPoint x="340" y="335" />
            </Array>
          </mxGeometry>
        </mxCell>
        <mxCell id="LHUtdxbBdhvLTkgLUQPW-5" value="MMC / RSView&lt;br style=&quot;font-size: 14px;&quot;&gt;&lt;font style=&quot;font-size: 14px;&quot;&gt;IP&lt;b style=&quot;font-size: 14px;&quot;&gt;: 192.168.100.12&lt;br style=&quot;font-size: 14px;&quot;&gt;&lt;/b&gt;&lt;/font&gt;" style="fontColor=#0066CC;verticalAlign=top;verticalLabelPosition=bottom;labelPosition=center;align=center;html=1;outlineConnect=0;fillColor=#CCCCCC;strokeColor=#6881B3;gradientColor=none;gradientDirection=north;strokeWidth=2;shape=mxgraph.networks.laptop;fontSize=14;" parent="1" vertex="1">
          <mxGeometry x="215" y="307" width="100" height="55" as="geometry" />
        </mxCell>
        <mxCell id="LHUtdxbBdhvLTkgLUQPW-13" value="" style="edgeStyle=orthogonalEdgeStyle;rounded=0;orthogonalLoop=1;jettySize=auto;html=1;endArrow=none;endFill=0;fillColor=#d80073;strokeColor=#A50040;strokeWidth=3;" parent="1" source="LHUtdxbBdhvLTkgLUQPW-7" target="LHUtdxbBdhvLTkgLUQPW-12" edge="1">
          <mxGeometry relative="1" as="geometry">
            <Array as="points">
              <mxPoint x="500" y="277" />
              <mxPoint x="560" y="277" />
            </Array>
          </mxGeometry>
        </mxCell>
        <mxCell id="LHUtdxbBdhvLTkgLUQPW-7" value="CNC&lt;br&gt;KSM" style="rounded=0;whiteSpace=wrap;html=1;" parent="1" vertex="1">
          <mxGeometry x="440" y="187" width="120" height="60" as="geometry" />
        </mxCell>
        <mxCell id="LHUtdxbBdhvLTkgLUQPW-19" style="edgeStyle=orthogonalEdgeStyle;rounded=0;orthogonalLoop=1;jettySize=auto;html=1;endArrow=none;endFill=0;fillColor=#d80073;strokeColor=#A50040;strokeWidth=3;" parent="1" source="LHUtdxbBdhvLTkgLUQPW-8" target="LHUtdxbBdhvLTkgLUQPW-12" edge="1">
          <mxGeometry relative="1" as="geometry" />
        </mxCell>
        <mxCell id="LHUtdxbBdhvLTkgLUQPW-8" value="CNC&lt;br&gt;PSM" style="rounded=0;whiteSpace=wrap;html=1;" parent="1" vertex="1">
          <mxGeometry x="580" y="187" width="120" height="60" as="geometry" />
        </mxCell>
        <mxCell id="LHUtdxbBdhvLTkgLUQPW-21" style="edgeStyle=orthogonalEdgeStyle;rounded=0;orthogonalLoop=1;jettySize=auto;html=1;endArrow=none;endFill=0;exitX=0.15;exitY=0.5;exitDx=0;exitDy=0;exitPerimeter=0;fillColor=#ffe6cc;strokeColor=#d79b00;strokeWidth=3;" parent="1" source="LHUtdxbBdhvLTkgLUQPW-12" target="LHUtdxbBdhvLTkgLUQPW-2" edge="1">
          <mxGeometry relative="1" as="geometry">
            <Array as="points">
              <mxPoint x="500" y="335" />
              <mxPoint x="500" y="410" />
              <mxPoint x="380" y="410" />
            </Array>
          </mxGeometry>
        </mxCell>
        <mxCell id="LHUtdxbBdhvLTkgLUQPW-12" value="MMC / RSView&lt;br style=&quot;font-size: 14px;&quot;&gt;&lt;font style=&quot;font-size: 14px;&quot;&gt;IP&lt;b style=&quot;font-size: 14px;&quot;&gt;: 192.168.100.13&lt;br style=&quot;font-size: 14px;&quot;&gt;&lt;/b&gt;&lt;/font&gt;" style="fontColor=#0066CC;verticalAlign=top;verticalLabelPosition=bottom;labelPosition=center;align=center;html=1;outlineConnect=0;fillColor=#CCCCCC;strokeColor=#6881B3;gradientColor=none;gradientDirection=north;strokeWidth=2;shape=mxgraph.networks.laptop;fontSize=14;" parent="1" vertex="1">
          <mxGeometry x="530" y="307" width="100" height="55" as="geometry" />
        </mxCell>
        <mxCell id="LHUtdxbBdhvLTkgLUQPW-22" style="edgeStyle=orthogonalEdgeStyle;rounded=0;orthogonalLoop=1;jettySize=auto;html=1;endArrow=none;endFill=0;exitX=0.15;exitY=0.5;exitDx=0;exitDy=0;exitPerimeter=0;fillColor=#ffe6cc;strokeColor=#d79b00;strokeWidth=3;" parent="1" source="LHUtdxbBdhvLTkgLUQPW-14" target="LHUtdxbBdhvLTkgLUQPW-2" edge="1">
          <mxGeometry relative="1" as="geometry">
            <Array as="points">
              <mxPoint x="680" y="335" />
              <mxPoint x="680" y="430" />
              <mxPoint x="400" y="430" />
            </Array>
          </mxGeometry>
        </mxCell>
        <mxCell id="LHUtdxbBdhvLTkgLUQPW-14" value="MMC / RSView&lt;br style=&quot;font-size: 14px;&quot;&gt;&lt;font style=&quot;font-size: 14px;&quot;&gt;IP&lt;b style=&quot;font-size: 14px;&quot;&gt;: 192.168.100.14&lt;br style=&quot;font-size: 14px;&quot;&gt;&lt;/b&gt;&lt;/font&gt;" style="fontColor=#0066CC;verticalAlign=top;verticalLabelPosition=bottom;labelPosition=center;align=center;html=1;outlineConnect=0;fillColor=#CCCCCC;strokeColor=#6881B3;gradientColor=none;gradientDirection=north;strokeWidth=2;shape=mxgraph.networks.laptop;fontSize=14;" parent="1" vertex="1">
          <mxGeometry x="730" y="307" width="100" height="55" as="geometry" />
        </mxCell>
        <mxCell id="LHUtdxbBdhvLTkgLUQPW-18" value="" style="edgeStyle=orthogonalEdgeStyle;rounded=0;orthogonalLoop=1;jettySize=auto;html=1;endArrow=none;endFill=0;fillColor=#d80073;strokeColor=#A50040;strokeWidth=3;" parent="1" source="LHUtdxbBdhvLTkgLUQPW-16" target="LHUtdxbBdhvLTkgLUQPW-14" edge="1">
          <mxGeometry relative="1" as="geometry" />
        </mxCell>
        <mxCell id="LHUtdxbBdhvLTkgLUQPW-16" value="CNC&lt;br&gt;PSM" style="rounded=0;whiteSpace=wrap;html=1;" parent="1" vertex="1">
          <mxGeometry x="720" y="187" width="120" height="60" as="geometry" />
        </mxCell>
        <mxCell id="LHUtdxbBdhvLTkgLUQPW-24" value="K000073_36 (D1)&lt;br&gt;(power supply 150A)" style="text;html=1;align=center;verticalAlign=middle;resizable=0;points=[];autosize=1;strokeColor=none;fillColor=none;" parent="1" vertex="1">
          <mxGeometry x="30" width="130" height="40" as="geometry" />
        </mxCell>
        <mxCell id="LHUtdxbBdhvLTkgLUQPW-29" style="edgeStyle=orthogonalEdgeStyle;rounded=0;orthogonalLoop=1;jettySize=auto;html=1;entryX=0.5;entryY=1;entryDx=0;entryDy=0;entryPerimeter=0;endArrow=none;endFill=0;fillColor=#ffe6cc;strokeColor=#d79b00;strokeWidth=3;" parent="1" source="LHUtdxbBdhvLTkgLUQPW-25" target="LHUtdxbBdhvLTkgLUQPW-1" edge="1">
          <mxGeometry relative="1" as="geometry">
            <Array as="points">
              <mxPoint x="170" y="555" />
              <mxPoint x="170" y="640" />
              <mxPoint x="375" y="640" />
            </Array>
          </mxGeometry>
        </mxCell>
        <mxCell id="LHUtdxbBdhvLTkgLUQPW-25" value="CPU exit line control 35&lt;br style=&quot;font-size: 14px;&quot;&gt;SLC 5/05 (1747-L551)&lt;br style=&quot;font-size: 14px;&quot;&gt;IP:&lt;b style=&quot;font-size: 14px;&quot;&gt;&lt;font style=&quot;font-size: 14px;&quot;&gt;192.168.100.10&lt;/font&gt;&lt;/b&gt;" style="fontColor=#0066CC;verticalAlign=top;verticalLabelPosition=bottom;labelPosition=center;align=center;html=1;outlineConnect=0;fillColor=#CCCCCC;strokeColor=#6881B3;gradientColor=none;gradientDirection=north;strokeWidth=2;shape=mxgraph.networks.ups_enterprise;fontSize=14;" parent="1" vertex="1">
          <mxGeometry x="30" y="517" width="110" height="70" as="geometry" />
        </mxCell>
        <mxCell id="LHUtdxbBdhvLTkgLUQPW-26" value="K000073_35 (D)&lt;br&gt;(power supply 60A)" style="text;html=1;align=center;verticalAlign=middle;resizable=0;points=[];autosize=1;strokeColor=none;fillColor=none;" parent="1" vertex="1">
          <mxGeometry x="20" y="477" width="130" height="40" as="geometry" />
        </mxCell>
        <mxCell id="LHUtdxbBdhvLTkgLUQPW-35" style="edgeStyle=orthogonalEdgeStyle;rounded=0;orthogonalLoop=1;jettySize=auto;html=1;entryX=0.5;entryY=0;entryDx=0;entryDy=0;endArrow=none;endFill=0;dashed=1;strokeWidth=2;fillColor=#dae8fc;strokeColor=#6c8ebf;dashPattern=8 8;" parent="1" edge="1">
          <mxGeometry relative="1" as="geometry">
            <Array as="points">
              <mxPoint x="950" y="47" />
              <mxPoint x="1580" y="47" />
            </Array>
            <mxPoint x="950.0000000000005" y="182" as="sourcePoint" />
          </mxGeometry>
        </mxCell>
        <mxCell id="LHUtdxbBdhvLTkgLUQPW-52" value="K000073_37 (D2)&lt;br&gt;(power supply 150A)" style="text;html=1;align=center;verticalAlign=middle;resizable=0;points=[];autosize=1;strokeColor=none;fillColor=none;" parent="1" vertex="1">
          <mxGeometry x="877" width="130" height="40" as="geometry" />
        </mxCell>
        <mxCell id="LHUtdxbBdhvLTkgLUQPW-54" value="" style="endArrow=none;html=1;rounded=0;strokeWidth=3;fillColor=#f0a30a;strokeColor=#BD7000;" parent="1" edge="1">
          <mxGeometry width="50" height="50" relative="1" as="geometry">
            <mxPoint x="400" y="702.29" as="sourcePoint" />
            <mxPoint x="460" y="702.29" as="targetPoint" />
          </mxGeometry>
        </mxCell>
        <mxCell id="LHUtdxbBdhvLTkgLUQPW-55" value="" style="endArrow=none;html=1;rounded=0;strokeWidth=3;fillColor=#e51400;strokeColor=#B20000;" parent="1" edge="1">
          <mxGeometry width="50" height="50" relative="1" as="geometry">
            <mxPoint x="400" y="672.29" as="sourcePoint" />
            <mxPoint x="460" y="672.29" as="targetPoint" />
          </mxGeometry>
        </mxCell>
        <mxCell id="LHUtdxbBdhvLTkgLUQPW-56" value="" style="endArrow=none;html=1;rounded=0;strokeWidth=3;fillColor=#b1ddf0;strokeColor=#10739e;dashed=1;" parent="1" edge="1">
          <mxGeometry width="50" height="50" relative="1" as="geometry">
            <mxPoint x="400" y="732.29" as="sourcePoint" />
            <mxPoint x="460" y="732.29" as="targetPoint" />
          </mxGeometry>
        </mxCell>
        <mxCell id="LHUtdxbBdhvLTkgLUQPW-57" value="Optical" style="text;html=1;align=center;verticalAlign=middle;resizable=0;points=[];autosize=1;strokeColor=none;fillColor=none;fontSize=17;" parent="1" vertex="1">
          <mxGeometry x="465" y="658" width="80" height="30" as="geometry" />
        </mxCell>
        <mxCell id="LHUtdxbBdhvLTkgLUQPW-58" value="Ethernet/IP" style="text;html=1;align=center;verticalAlign=middle;resizable=0;points=[];autosize=1;strokeColor=none;fillColor=none;fontSize=17;" parent="1" vertex="1">
          <mxGeometry x="465" y="688" width="110" height="30" as="geometry" />
        </mxCell>
        <mxCell id="LHUtdxbBdhvLTkgLUQPW-59" value="Discrete IO" style="text;html=1;align=center;verticalAlign=middle;resizable=0;points=[];autosize=1;strokeColor=none;fillColor=none;fontSize=17;" parent="1" vertex="1">
          <mxGeometry x="465" y="718" width="110" height="30" as="geometry" />
        </mxCell>
        <mxCell id="LHUtdxbBdhvLTkgLUQPW-61" style="edgeStyle=orthogonalEdgeStyle;rounded=0;orthogonalLoop=1;jettySize=auto;html=1;endArrow=none;endFill=0;fillColor=#ffe6cc;strokeColor=#d79b00;strokeWidth=3;exitX=0;exitY=0.85;exitDx=0;exitDy=0;exitPerimeter=0;" parent="1" source="LHUtdxbBdhvLTkgLUQPW-60" target="LHUtdxbBdhvLTkgLUQPW-2" edge="1">
          <mxGeometry relative="1" as="geometry">
            <Array as="points">
              <mxPoint x="360" y="352" />
            </Array>
          </mxGeometry>
        </mxCell>
        <mxCell id="LHUtdxbBdhvLTkgLUQPW-82" style="edgeStyle=orthogonalEdgeStyle;rounded=0;orthogonalLoop=1;jettySize=auto;html=1;exitX=0.5;exitY=0.07;exitDx=0;exitDy=0;exitPerimeter=0;entryX=1;entryY=0.95;entryDx=0;entryDy=0;entryPerimeter=0;endArrow=none;endFill=0;strokeWidth=3;fillColor=#ffe6cc;strokeColor=#d79b00;" parent="1" source="LHUtdxbBdhvLTkgLUQPW-60" target="LHUtdxbBdhvLTkgLUQPW-81" edge="1">
          <mxGeometry relative="1" as="geometry" />
        </mxCell>
        <mxCell id="LHUtdxbBdhvLTkgLUQPW-60" value="Inspection PC&lt;br&gt;IP: &lt;b&gt;192.168.100.15&lt;br&gt;192.168.1.170&lt;br&gt;&lt;/b&gt;" style="fontColor=#0066CC;verticalAlign=top;verticalLabelPosition=bottom;labelPosition=center;align=center;html=1;outlineConnect=0;fillColor=#CCCCCC;strokeColor=#6881B3;gradientColor=none;gradientDirection=north;strokeWidth=2;shape=mxgraph.networks.pc;fontSize=15;" parent="1" vertex="1">
          <mxGeometry x="380" y="280" width="100" height="70" as="geometry" />
        </mxCell>
        <mxCell id="LHUtdxbBdhvLTkgLUQPW-63" value="" style="strokeColor=#6881B3;edgeStyle=none;rounded=0;endArrow=none;html=1;strokeWidth=2;" parent="1" edge="1">
          <mxGeometry relative="1" as="geometry">
            <mxPoint x="273" y="207" as="sourcePoint" />
            <mxPoint x="273" y="208" as="targetPoint" />
          </mxGeometry>
        </mxCell>
        <mxCell id="LHUtdxbBdhvLTkgLUQPW-64" value="" style="strokeColor=#6881B3;edgeStyle=none;rounded=0;endArrow=none;html=1;strokeWidth=2;" parent="1" edge="1">
          <mxGeometry relative="1" as="geometry">
            <mxPoint x="333" y="207" as="sourcePoint" />
            <mxPoint x="333" y="208" as="targetPoint" />
          </mxGeometry>
        </mxCell>
        <mxCell id="LHUtdxbBdhvLTkgLUQPW-65" value="" style="strokeColor=#6881B3;edgeStyle=none;rounded=0;endArrow=none;html=1;strokeWidth=2;" parent="1" edge="1">
          <mxGeometry relative="1" as="geometry">
            <mxPoint x="393" y="207" as="sourcePoint" />
            <mxPoint x="393" y="208" as="targetPoint" />
          </mxGeometry>
        </mxCell>
        <mxCell id="LHUtdxbBdhvLTkgLUQPW-66" value="" style="strokeColor=#6881B3;edgeStyle=none;rounded=0;endArrow=none;html=1;strokeWidth=2;" parent="1" edge="1">
          <mxGeometry relative="1" as="geometry">
            <mxPoint x="453" y="207" as="sourcePoint" />
            <mxPoint x="453" y="208" as="targetPoint" />
          </mxGeometry>
        </mxCell>
        <mxCell id="LHUtdxbBdhvLTkgLUQPW-67" value="" style="strokeColor=#6881B3;edgeStyle=none;rounded=0;endArrow=none;html=1;strokeWidth=2;" parent="1" edge="1">
          <mxGeometry relative="1" as="geometry">
            <mxPoint x="273" y="226" as="sourcePoint" />
            <mxPoint x="273" y="227" as="targetPoint" />
          </mxGeometry>
        </mxCell>
        <mxCell id="LHUtdxbBdhvLTkgLUQPW-68" value="" style="strokeColor=#6881B3;edgeStyle=none;rounded=0;endArrow=none;html=1;strokeWidth=2;" parent="1" edge="1">
          <mxGeometry relative="1" as="geometry">
            <mxPoint x="333" y="226" as="sourcePoint" />
            <mxPoint x="333" y="227" as="targetPoint" />
          </mxGeometry>
        </mxCell>
        <mxCell id="LHUtdxbBdhvLTkgLUQPW-69" value="" style="strokeColor=#6881B3;edgeStyle=none;rounded=0;endArrow=none;html=1;strokeWidth=2;" parent="1" edge="1">
          <mxGeometry relative="1" as="geometry">
            <mxPoint x="393" y="226" as="sourcePoint" />
            <mxPoint x="393" y="227" as="targetPoint" />
          </mxGeometry>
        </mxCell>
        <mxCell id="LHUtdxbBdhvLTkgLUQPW-70" value="" style="strokeColor=#6881B3;edgeStyle=none;rounded=0;endArrow=none;html=1;strokeWidth=2;" parent="1" edge="1">
          <mxGeometry relative="1" as="geometry">
            <mxPoint x="453" y="226" as="sourcePoint" />
            <mxPoint x="453" y="227" as="targetPoint" />
          </mxGeometry>
        </mxCell>
        <mxCell id="LHUtdxbBdhvLTkgLUQPW-81" value="MLG2&lt;br&gt;IP: 192.168.1.179" style="fontColor=#0066CC;verticalAlign=top;verticalLabelPosition=bottom;labelPosition=center;align=center;html=1;outlineConnect=0;fillColor=#CCCCCC;strokeColor=#6881B3;gradientColor=none;gradientDirection=north;strokeWidth=2;shape=mxgraph.networks.mainframe;" parent="1" vertex="1">
          <mxGeometry x="370" y="107" width="20" height="140" as="geometry" />
        </mxCell>
        <mxCell id="LHUtdxbBdhvLTkgLUQPW-85" value="" style="fontColor=#0066CC;verticalAlign=top;verticalLabelPosition=bottom;labelPosition=center;align=center;html=1;outlineConnect=0;fillColor=#CCCCCC;strokeColor=#6881B3;gradientColor=none;gradientDirection=north;strokeWidth=2;shape=mxgraph.networks.firewall;" parent="1" vertex="1">
          <mxGeometry x="910" y="588" width="100" height="100" as="geometry" />
        </mxCell>
        <mxCell id="LHUtdxbBdhvLTkgLUQPW-88" value="" style="endArrow=none;html=1;rounded=0;strokeWidth=3;fillColor=#dae8fc;strokeColor=#6c8ebf;" parent="1" edge="1">
          <mxGeometry width="50" height="50" relative="1" as="geometry">
            <mxPoint x="400" y="760" as="sourcePoint" />
            <mxPoint x="460" y="760" as="targetPoint" />
          </mxGeometry>
        </mxCell>
        <mxCell id="LHUtdxbBdhvLTkgLUQPW-89" value="Ethernet" style="text;html=1;align=center;verticalAlign=middle;resizable=0;points=[];autosize=1;strokeColor=none;fillColor=none;fontSize=17;" parent="1" vertex="1">
          <mxGeometry x="465" y="748" width="90" height="30" as="geometry" />
        </mxCell>
        <mxCell id="LHUtdxbBdhvLTkgLUQPW-90" value="" style="fontColor=#0066CC;verticalAlign=top;verticalLabelPosition=bottom;labelPosition=center;align=center;html=1;outlineConnect=0;fillColor=#CCCCCC;strokeColor=#6881B3;gradientColor=none;gradientDirection=north;strokeWidth=2;shape=mxgraph.networks.router;" parent="1" vertex="1">
          <mxGeometry x="1200" y="447" width="100" height="30" as="geometry" />
        </mxCell>
        <mxCell id="LHUtdxbBdhvLTkgLUQPW-91" style="edgeStyle=orthogonalEdgeStyle;rounded=0;orthogonalLoop=1;jettySize=auto;html=1;entryX=0.335;entryY=0.017;entryDx=0;entryDy=0;entryPerimeter=0;strokeColor=#6c8ebf;endArrow=none;endFill=0;startArrow=none;startFill=0;dashed=1;strokeWidth=2;fillColor=#dae8fc;dashPattern=8 8;" parent="1" source="LHUtdxbBdhvLTkgLUQPW-96" target="LHUtdxbBdhvLTkgLUQPW-98" edge="1">
          <mxGeometry relative="1" as="geometry">
            <Array as="points">
              <mxPoint x="995" y="107" />
              <mxPoint x="1140" y="107" />
              <mxPoint x="1140" y="188" />
            </Array>
          </mxGeometry>
        </mxCell>
        <mxCell id="LHUtdxbBdhvLTkgLUQPW-92" style="edgeStyle=orthogonalEdgeStyle;rounded=0;orthogonalLoop=1;jettySize=auto;html=1;exitX=0.5;exitY=0;exitDx=0;exitDy=0;exitPerimeter=0;entryX=0.5;entryY=0;entryDx=0;entryDy=0;endArrow=none;endFill=0;dashed=1;strokeWidth=2;fillColor=#dae8fc;strokeColor=#6c8ebf;dashPattern=8 8;" parent="1" source="LHUtdxbBdhvLTkgLUQPW-96" target="LHUtdxbBdhvLTkgLUQPW-102" edge="1">
          <mxGeometry relative="1" as="geometry">
            <Array as="points">
              <mxPoint x="975" y="182" />
              <mxPoint x="975" y="87" />
              <mxPoint x="1375" y="87" />
            </Array>
          </mxGeometry>
        </mxCell>
        <mxCell id="LHUtdxbBdhvLTkgLUQPW-93" style="edgeStyle=orthogonalEdgeStyle;rounded=0;orthogonalLoop=1;jettySize=auto;html=1;entryX=0.5;entryY=0;entryDx=0;entryDy=0;endArrow=none;endFill=0;dashed=1;strokeWidth=2;fillColor=#dae8fc;strokeColor=#6c8ebf;dashPattern=8 8;" parent="1" source="LHUtdxbBdhvLTkgLUQPW-96" target="LHUtdxbBdhvLTkgLUQPW-104" edge="1">
          <mxGeometry relative="1" as="geometry">
            <Array as="points">
              <mxPoint x="950" y="67" />
              <mxPoint x="1515" y="67" />
            </Array>
          </mxGeometry>
        </mxCell>
        <mxCell id="LHUtdxbBdhvLTkgLUQPW-94" style="edgeStyle=orthogonalEdgeStyle;rounded=0;orthogonalLoop=1;jettySize=auto;html=1;entryX=0.5;entryY=0;entryDx=0;entryDy=0;endArrow=none;endFill=0;dashed=1;strokeWidth=2;fillColor=#dae8fc;strokeColor=#6c8ebf;dashPattern=8 8;" parent="1" source="LHUtdxbBdhvLTkgLUQPW-96" target="LHUtdxbBdhvLTkgLUQPW-110" edge="1">
          <mxGeometry relative="1" as="geometry">
            <Array as="points">
              <mxPoint x="930" y="47" />
              <mxPoint x="1655" y="47" />
            </Array>
          </mxGeometry>
        </mxCell>
        <mxCell id="LHUtdxbBdhvLTkgLUQPW-95" style="edgeStyle=orthogonalEdgeStyle;rounded=0;orthogonalLoop=1;jettySize=auto;html=1;entryX=0;entryY=0.5;entryDx=0;entryDy=0;entryPerimeter=0;endArrow=none;endFill=0;fillColor=#ffe6cc;strokeColor=#d79b00;strokeWidth=3;" parent="1" source="LHUtdxbBdhvLTkgLUQPW-96" target="LHUtdxbBdhvLTkgLUQPW-90" edge="1">
          <mxGeometry relative="1" as="geometry">
            <Array as="points">
              <mxPoint x="1040" y="217" />
              <mxPoint x="1040" y="462" />
            </Array>
          </mxGeometry>
        </mxCell>
        <mxCell id="LHUtdxbBdhvLTkgLUQPW-96" value="CPU Line control 36&lt;br style=&quot;font-size: 14px;&quot;&gt;SLC 5/05 (1747-L551)&lt;br style=&quot;font-size: 14px;&quot;&gt;IP:&lt;b style=&quot;font-size: 14px;&quot;&gt;&lt;font style=&quot;font-size: 14px;&quot;&gt;192.168.100.21&lt;/font&gt;&lt;/b&gt;" style="fontColor=#0066CC;verticalAlign=top;verticalLabelPosition=bottom;labelPosition=center;align=center;html=1;outlineConnect=0;fillColor=#CCCCCC;strokeColor=#6881B3;gradientColor=none;gradientDirection=north;strokeWidth=2;shape=mxgraph.networks.ups_enterprise;fontSize=14;" parent="1" vertex="1">
          <mxGeometry x="910" y="182" width="100" height="70" as="geometry" />
        </mxCell>
        <mxCell id="LHUtdxbBdhvLTkgLUQPW-97" style="edgeStyle=orthogonalEdgeStyle;rounded=0;orthogonalLoop=1;jettySize=auto;html=1;endArrow=none;endFill=0;fillColor=#d80073;strokeColor=#A50040;strokeWidth=3;" parent="1" source="LHUtdxbBdhvLTkgLUQPW-98" target="LHUtdxbBdhvLTkgLUQPW-100" edge="1">
          <mxGeometry relative="1" as="geometry" />
        </mxCell>
        <mxCell id="LHUtdxbBdhvLTkgLUQPW-98" value="CNC&lt;br&gt;VSM" style="rounded=0;whiteSpace=wrap;html=1;" parent="1" vertex="1">
          <mxGeometry x="1080" y="187" width="120" height="60" as="geometry" />
        </mxCell>
        <mxCell id="LHUtdxbBdhvLTkgLUQPW-99" style="edgeStyle=orthogonalEdgeStyle;rounded=0;orthogonalLoop=1;jettySize=auto;html=1;endArrow=none;endFill=0;exitX=0.85;exitY=0.5;exitDx=0;exitDy=0;exitPerimeter=0;fillColor=#ffe6cc;strokeColor=#d79b00;strokeWidth=3;" parent="1" source="LHUtdxbBdhvLTkgLUQPW-100" target="LHUtdxbBdhvLTkgLUQPW-90" edge="1">
          <mxGeometry relative="1" as="geometry">
            <Array as="points">
              <mxPoint x="1215" y="335" />
            </Array>
          </mxGeometry>
        </mxCell>
        <mxCell id="LHUtdxbBdhvLTkgLUQPW-100" value="MMC / RSView&lt;br style=&quot;font-size: 14px;&quot;&gt;&lt;font style=&quot;font-size: 14px;&quot;&gt;IP&lt;b style=&quot;font-size: 14px;&quot;&gt;: 192.168.100.22&lt;br style=&quot;font-size: 14px;&quot;&gt;&lt;/b&gt;&lt;/font&gt;" style="fontColor=#0066CC;verticalAlign=top;verticalLabelPosition=bottom;labelPosition=center;align=center;html=1;outlineConnect=0;fillColor=#CCCCCC;strokeColor=#6881B3;gradientColor=none;gradientDirection=north;strokeWidth=2;shape=mxgraph.networks.laptop;fontSize=14;" parent="1" vertex="1">
          <mxGeometry x="1090" y="307" width="100" height="55" as="geometry" />
        </mxCell>
        <mxCell id="LHUtdxbBdhvLTkgLUQPW-101" value="" style="edgeStyle=orthogonalEdgeStyle;rounded=0;orthogonalLoop=1;jettySize=auto;html=1;endArrow=none;endFill=0;fillColor=#d80073;strokeColor=#A50040;strokeWidth=3;" parent="1" source="LHUtdxbBdhvLTkgLUQPW-102" target="LHUtdxbBdhvLTkgLUQPW-106" edge="1">
          <mxGeometry relative="1" as="geometry">
            <Array as="points">
              <mxPoint x="1375" y="277" />
              <mxPoint x="1435" y="277" />
            </Array>
          </mxGeometry>
        </mxCell>
        <mxCell id="LHUtdxbBdhvLTkgLUQPW-102" value="CNC&lt;br&gt;KSM" style="rounded=0;whiteSpace=wrap;html=1;" parent="1" vertex="1">
          <mxGeometry x="1315" y="187" width="120" height="60" as="geometry" />
        </mxCell>
        <mxCell id="LHUtdxbBdhvLTkgLUQPW-103" style="edgeStyle=orthogonalEdgeStyle;rounded=0;orthogonalLoop=1;jettySize=auto;html=1;endArrow=none;endFill=0;fillColor=#d80073;strokeColor=#A50040;strokeWidth=3;" parent="1" source="LHUtdxbBdhvLTkgLUQPW-104" target="LHUtdxbBdhvLTkgLUQPW-106" edge="1">
          <mxGeometry relative="1" as="geometry" />
        </mxCell>
        <mxCell id="LHUtdxbBdhvLTkgLUQPW-104" value="CNC&lt;br&gt;PSM" style="rounded=0;whiteSpace=wrap;html=1;" parent="1" vertex="1">
          <mxGeometry x="1455" y="187" width="120" height="60" as="geometry" />
        </mxCell>
        <mxCell id="LHUtdxbBdhvLTkgLUQPW-105" style="edgeStyle=orthogonalEdgeStyle;rounded=0;orthogonalLoop=1;jettySize=auto;html=1;endArrow=none;endFill=0;exitX=0.15;exitY=0.5;exitDx=0;exitDy=0;exitPerimeter=0;fillColor=#ffe6cc;strokeColor=#d79b00;strokeWidth=3;" parent="1" source="LHUtdxbBdhvLTkgLUQPW-106" target="LHUtdxbBdhvLTkgLUQPW-90" edge="1">
          <mxGeometry relative="1" as="geometry">
            <Array as="points">
              <mxPoint x="1375" y="335" />
              <mxPoint x="1375" y="410" />
              <mxPoint x="1255" y="410" />
            </Array>
          </mxGeometry>
        </mxCell>
        <mxCell id="LHUtdxbBdhvLTkgLUQPW-106" value="MMC / RSView&lt;br style=&quot;font-size: 14px;&quot;&gt;&lt;font style=&quot;font-size: 14px;&quot;&gt;IP&lt;b style=&quot;font-size: 14px;&quot;&gt;: 192.168.100.23&lt;br style=&quot;font-size: 14px;&quot;&gt;&lt;/b&gt;&lt;/font&gt;" style="fontColor=#0066CC;verticalAlign=top;verticalLabelPosition=bottom;labelPosition=center;align=center;html=1;outlineConnect=0;fillColor=#CCCCCC;strokeColor=#6881B3;gradientColor=none;gradientDirection=north;strokeWidth=2;shape=mxgraph.networks.laptop;fontSize=14;" parent="1" vertex="1">
          <mxGeometry x="1405" y="307" width="100" height="55" as="geometry" />
        </mxCell>
        <mxCell id="LHUtdxbBdhvLTkgLUQPW-107" style="edgeStyle=orthogonalEdgeStyle;rounded=0;orthogonalLoop=1;jettySize=auto;html=1;endArrow=none;endFill=0;exitX=0.15;exitY=0.5;exitDx=0;exitDy=0;exitPerimeter=0;fillColor=#ffe6cc;strokeColor=#d79b00;strokeWidth=3;" parent="1" source="LHUtdxbBdhvLTkgLUQPW-108" target="LHUtdxbBdhvLTkgLUQPW-90" edge="1">
          <mxGeometry relative="1" as="geometry">
            <Array as="points">
              <mxPoint x="1555" y="335" />
              <mxPoint x="1555" y="430" />
              <mxPoint x="1275" y="430" />
            </Array>
          </mxGeometry>
        </mxCell>
        <mxCell id="LHUtdxbBdhvLTkgLUQPW-108" value="MMC / RSView&lt;br style=&quot;font-size: 14px;&quot;&gt;&lt;font style=&quot;font-size: 14px;&quot;&gt;IP&lt;b style=&quot;font-size: 14px;&quot;&gt;: 192.168.100.24&lt;br style=&quot;font-size: 14px;&quot;&gt;&lt;/b&gt;&lt;/font&gt;" style="fontColor=#0066CC;verticalAlign=top;verticalLabelPosition=bottom;labelPosition=center;align=center;html=1;outlineConnect=0;fillColor=#CCCCCC;strokeColor=#6881B3;gradientColor=none;gradientDirection=north;strokeWidth=2;shape=mxgraph.networks.laptop;fontSize=14;" parent="1" vertex="1">
          <mxGeometry x="1605" y="307" width="100" height="55" as="geometry" />
        </mxCell>
        <mxCell id="LHUtdxbBdhvLTkgLUQPW-109" value="" style="edgeStyle=orthogonalEdgeStyle;rounded=0;orthogonalLoop=1;jettySize=auto;html=1;endArrow=none;endFill=0;fillColor=#d80073;strokeColor=#A50040;strokeWidth=3;" parent="1" source="LHUtdxbBdhvLTkgLUQPW-110" target="LHUtdxbBdhvLTkgLUQPW-108" edge="1">
          <mxGeometry relative="1" as="geometry" />
        </mxCell>
        <mxCell id="LHUtdxbBdhvLTkgLUQPW-110" value="CNC&lt;br&gt;PSM" style="rounded=0;whiteSpace=wrap;html=1;" parent="1" vertex="1">
          <mxGeometry x="1595" y="187" width="120" height="60" as="geometry" />
        </mxCell>
        <mxCell id="LHUtdxbBdhvLTkgLUQPW-111" style="edgeStyle=orthogonalEdgeStyle;rounded=0;orthogonalLoop=1;jettySize=auto;html=1;endArrow=none;endFill=0;fillColor=#ffe6cc;strokeColor=#d79b00;strokeWidth=3;exitX=0;exitY=0.85;exitDx=0;exitDy=0;exitPerimeter=0;" parent="1" source="LHUtdxbBdhvLTkgLUQPW-113" target="LHUtdxbBdhvLTkgLUQPW-90" edge="1">
          <mxGeometry relative="1" as="geometry">
            <Array as="points">
              <mxPoint x="1235" y="352" />
            </Array>
          </mxGeometry>
        </mxCell>
        <mxCell id="LHUtdxbBdhvLTkgLUQPW-112" style="edgeStyle=orthogonalEdgeStyle;rounded=0;orthogonalLoop=1;jettySize=auto;html=1;exitX=0.5;exitY=0.07;exitDx=0;exitDy=0;exitPerimeter=0;entryX=1;entryY=0.95;entryDx=0;entryDy=0;entryPerimeter=0;endArrow=none;endFill=0;strokeWidth=3;fillColor=#ffe6cc;strokeColor=#d79b00;" parent="1" source="LHUtdxbBdhvLTkgLUQPW-113" target="LHUtdxbBdhvLTkgLUQPW-122" edge="1">
          <mxGeometry relative="1" as="geometry" />
        </mxCell>
        <mxCell id="LHUtdxbBdhvLTkgLUQPW-113" value="Inspection PC&lt;br&gt;IP: &lt;b&gt;192.168.100.25&lt;br&gt;192.168.1.170&lt;br&gt;&lt;/b&gt;" style="fontColor=#0066CC;verticalAlign=top;verticalLabelPosition=bottom;labelPosition=center;align=center;html=1;outlineConnect=0;fillColor=#CCCCCC;strokeColor=#6881B3;gradientColor=none;gradientDirection=north;strokeWidth=2;shape=mxgraph.networks.pc;fontSize=15;" parent="1" vertex="1">
          <mxGeometry x="1255" y="280" width="100" height="70" as="geometry" />
        </mxCell>
        <mxCell id="LHUtdxbBdhvLTkgLUQPW-114" value="" style="strokeColor=#6881B3;edgeStyle=none;rounded=0;endArrow=none;html=1;strokeWidth=2;" parent="1" edge="1">
          <mxGeometry relative="1" as="geometry">
            <mxPoint x="1148" y="207" as="sourcePoint" />
            <mxPoint x="1148" y="208" as="targetPoint" />
          </mxGeometry>
        </mxCell>
        <mxCell id="LHUtdxbBdhvLTkgLUQPW-115" value="" style="strokeColor=#6881B3;edgeStyle=none;rounded=0;endArrow=none;html=1;strokeWidth=2;" parent="1" edge="1">
          <mxGeometry relative="1" as="geometry">
            <mxPoint x="1208" y="207" as="sourcePoint" />
            <mxPoint x="1208" y="208" as="targetPoint" />
          </mxGeometry>
        </mxCell>
        <mxCell id="LHUtdxbBdhvLTkgLUQPW-116" value="" style="strokeColor=#6881B3;edgeStyle=none;rounded=0;endArrow=none;html=1;strokeWidth=2;" parent="1" edge="1">
          <mxGeometry relative="1" as="geometry">
            <mxPoint x="1268" y="207" as="sourcePoint" />
            <mxPoint x="1268" y="208" as="targetPoint" />
          </mxGeometry>
        </mxCell>
        <mxCell id="LHUtdxbBdhvLTkgLUQPW-117" value="" style="strokeColor=#6881B3;edgeStyle=none;rounded=0;endArrow=none;html=1;strokeWidth=2;" parent="1" edge="1">
          <mxGeometry relative="1" as="geometry">
            <mxPoint x="1328" y="207" as="sourcePoint" />
            <mxPoint x="1328" y="208" as="targetPoint" />
          </mxGeometry>
        </mxCell>
        <mxCell id="LHUtdxbBdhvLTkgLUQPW-118" value="" style="strokeColor=#6881B3;edgeStyle=none;rounded=0;endArrow=none;html=1;strokeWidth=2;" parent="1" edge="1">
          <mxGeometry relative="1" as="geometry">
            <mxPoint x="1148" y="226" as="sourcePoint" />
            <mxPoint x="1148" y="227" as="targetPoint" />
          </mxGeometry>
        </mxCell>
        <mxCell id="LHUtdxbBdhvLTkgLUQPW-119" value="" style="strokeColor=#6881B3;edgeStyle=none;rounded=0;endArrow=none;html=1;strokeWidth=2;" parent="1" edge="1">
          <mxGeometry relative="1" as="geometry">
            <mxPoint x="1208" y="226" as="sourcePoint" />
            <mxPoint x="1208" y="227" as="targetPoint" />
          </mxGeometry>
        </mxCell>
        <mxCell id="LHUtdxbBdhvLTkgLUQPW-120" value="" style="strokeColor=#6881B3;edgeStyle=none;rounded=0;endArrow=none;html=1;strokeWidth=2;" parent="1" edge="1">
          <mxGeometry relative="1" as="geometry">
            <mxPoint x="1268" y="226" as="sourcePoint" />
            <mxPoint x="1268" y="227" as="targetPoint" />
          </mxGeometry>
        </mxCell>
        <mxCell id="LHUtdxbBdhvLTkgLUQPW-121" value="" style="strokeColor=#6881B3;edgeStyle=none;rounded=0;endArrow=none;html=1;strokeWidth=2;" parent="1" edge="1">
          <mxGeometry relative="1" as="geometry">
            <mxPoint x="1328" y="226" as="sourcePoint" />
            <mxPoint x="1328" y="227" as="targetPoint" />
          </mxGeometry>
        </mxCell>
        <mxCell id="LHUtdxbBdhvLTkgLUQPW-122" value="MLG2&lt;br&gt;IP: 192.168.1.179" style="fontColor=#0066CC;verticalAlign=top;verticalLabelPosition=bottom;labelPosition=center;align=center;html=1;outlineConnect=0;fillColor=#CCCCCC;strokeColor=#6881B3;gradientColor=none;gradientDirection=north;strokeWidth=2;shape=mxgraph.networks.mainframe;" parent="1" vertex="1">
          <mxGeometry x="1245" y="107" width="20" height="140" as="geometry" />
        </mxCell>
        <mxCell id="LHUtdxbBdhvLTkgLUQPW-123" value="Vakhramov Vadim, 2023" style="text;html=1;align=center;verticalAlign=middle;resizable=0;points=[];autosize=1;strokeColor=none;fillColor=none;" parent="1" vertex="1">
          <mxGeometry x="20" y="730" width="150" height="30" as="geometry" />
        </mxCell>
        <mxCell id="Tvb8bWGJ37O5i35k0-RM-5" value="" style="shape=flexArrow;endArrow=classic;startArrow=classic;html=1;rounded=0;" edge="1" parent="1">
          <mxGeometry width="100" height="100" relative="1" as="geometry">
            <mxPoint x="301" y="308" as="sourcePoint" />
            <mxPoint x="380" y="307" as="targetPoint" />
          </mxGeometry>
        </mxCell>
        <mxCell id="Tvb8bWGJ37O5i35k0-RM-6" value="SMBv1" style="text;html=1;align=center;verticalAlign=middle;resizable=0;points=[];autosize=1;strokeColor=none;fillColor=none;" vertex="1" parent="1">
          <mxGeometry x="310" y="277" width="60" height="30" as="geometry" />
        </mxCell>
        <mxCell id="Tvb8bWGJ37O5i35k0-RM-7" value="" style="shape=flexArrow;endArrow=classic;startArrow=classic;html=1;rounded=0;" edge="1" parent="1">
          <mxGeometry width="100" height="100" relative="1" as="geometry">
            <mxPoint x="1176" y="308" as="sourcePoint" />
            <mxPoint x="1255" y="307" as="targetPoint" />
          </mxGeometry>
        </mxCell>
        <mxCell id="Tvb8bWGJ37O5i35k0-RM-8" value="SMBv1" style="text;html=1;align=center;verticalAlign=middle;resizable=0;points=[];autosize=1;strokeColor=none;fillColor=none;" vertex="1" parent="1">
          <mxGeometry x="1185" y="277" width="60" height="30" as="geometry" />
        </mxCell>
      </root>
    </mxGraphModel>
  </diagram>
  <diagram id="Jnp_w_7EfxaXUyT_Qa2Q" name="Page-2">
    <mxGraphModel dx="838" dy="622" grid="1" gridSize="10" guides="1" tooltips="1" connect="1" arrows="1" fold="1" page="1" pageScale="1" pageWidth="1169" pageHeight="827" math="0" shadow="0">
      <root>
        <mxCell id="0" />
        <mxCell id="1" parent="0" />
        <mxCell id="F4JqlYZi5RjPpPofVP_1-1" value="Motrona" style="shadow=0;dashed=0;align=center;html=1;strokeWidth=1;shape=mxgraph.electrical.logic_gates.qfp_ic;whiteSpace=wrap;labelNames=a,b,c,d,e,f,g,h,i,j,k,l,m,n,o,p,q,r,s,t,u,v,w,x,y,z,a1,b1,c1,d1,e1,f1,g1,h1,i1,j1,k1,l1,m1,n1;" vertex="1" parent="1">
          <mxGeometry x="310" y="350" width="270" height="260" as="geometry" />
        </mxCell>
        <mxCell id="F4JqlYZi5RjPpPofVP_1-2" value="" style="shape=table;startSize=0;container=1;collapsible=0;childLayout=tableLayout;fontSize=16;" vertex="1" parent="1">
          <mxGeometry x="550" y="170" width="180" height="80" as="geometry" />
        </mxCell>
        <mxCell id="F4JqlYZi5RjPpPofVP_1-3" value="" style="shape=tableRow;horizontal=0;startSize=0;swimlaneHead=0;swimlaneBody=0;strokeColor=inherit;top=0;left=0;bottom=0;right=0;collapsible=0;dropTarget=0;fillColor=none;points=[[0,0.5],[1,0.5]];portConstraint=eastwest;fontSize=16;" vertex="1" parent="F4JqlYZi5RjPpPofVP_1-2">
          <mxGeometry width="180" height="40" as="geometry" />
        </mxCell>
        <mxCell id="F4JqlYZi5RjPpPofVP_1-4" value="" style="shape=partialRectangle;html=1;whiteSpace=wrap;connectable=0;strokeColor=inherit;overflow=hidden;fillColor=none;top=0;left=0;bottom=0;right=0;pointerEvents=1;fontSize=16;" vertex="1" parent="F4JqlYZi5RjPpPofVP_1-3">
          <mxGeometry width="20" height="40" as="geometry">
            <mxRectangle width="20" height="40" as="alternateBounds" />
          </mxGeometry>
        </mxCell>
        <mxCell id="F4JqlYZi5RjPpPofVP_1-5" value="" style="shape=partialRectangle;html=1;whiteSpace=wrap;connectable=0;strokeColor=inherit;overflow=hidden;fillColor=none;top=0;left=0;bottom=0;right=0;pointerEvents=1;fontSize=16;" vertex="1" parent="F4JqlYZi5RjPpPofVP_1-3">
          <mxGeometry x="20" width="100" height="40" as="geometry">
            <mxRectangle width="100" height="40" as="alternateBounds" />
          </mxGeometry>
        </mxCell>
        <mxCell id="F4JqlYZi5RjPpPofVP_1-6" value="" style="shape=partialRectangle;html=1;whiteSpace=wrap;connectable=0;strokeColor=inherit;overflow=hidden;fillColor=none;top=0;left=0;bottom=0;right=0;pointerEvents=1;fontSize=16;" vertex="1" parent="F4JqlYZi5RjPpPofVP_1-3">
          <mxGeometry x="120" width="60" height="40" as="geometry">
            <mxRectangle width="60" height="40" as="alternateBounds" />
          </mxGeometry>
        </mxCell>
        <mxCell id="F4JqlYZi5RjPpPofVP_1-7" value="" style="shape=tableRow;horizontal=0;startSize=0;swimlaneHead=0;swimlaneBody=0;strokeColor=inherit;top=0;left=0;bottom=0;right=0;collapsible=0;dropTarget=0;fillColor=none;points=[[0,0.5],[1,0.5]];portConstraint=eastwest;fontSize=16;" vertex="1" parent="F4JqlYZi5RjPpPofVP_1-2">
          <mxGeometry y="40" width="180" height="40" as="geometry" />
        </mxCell>
        <mxCell id="F4JqlYZi5RjPpPofVP_1-8" value="" style="shape=partialRectangle;html=1;whiteSpace=wrap;connectable=0;strokeColor=inherit;overflow=hidden;fillColor=none;top=0;left=0;bottom=0;right=0;pointerEvents=1;fontSize=16;" vertex="1" parent="F4JqlYZi5RjPpPofVP_1-7">
          <mxGeometry width="20" height="40" as="geometry">
            <mxRectangle width="20" height="40" as="alternateBounds" />
          </mxGeometry>
        </mxCell>
        <mxCell id="F4JqlYZi5RjPpPofVP_1-9" value="" style="shape=partialRectangle;html=1;whiteSpace=wrap;connectable=0;strokeColor=inherit;overflow=hidden;fillColor=none;top=0;left=0;bottom=0;right=0;pointerEvents=1;fontSize=16;" vertex="1" parent="F4JqlYZi5RjPpPofVP_1-7">
          <mxGeometry x="20" width="100" height="40" as="geometry">
            <mxRectangle width="100" height="40" as="alternateBounds" />
          </mxGeometry>
        </mxCell>
        <mxCell id="F4JqlYZi5RjPpPofVP_1-10" value="" style="shape=partialRectangle;html=1;whiteSpace=wrap;connectable=0;strokeColor=inherit;overflow=hidden;fillColor=none;top=0;left=0;bottom=0;right=0;pointerEvents=1;fontSize=16;" vertex="1" parent="F4JqlYZi5RjPpPofVP_1-7">
          <mxGeometry x="120" width="60" height="40" as="geometry">
            <mxRectangle width="60" height="40" as="alternateBounds" />
          </mxGeometry>
        </mxCell>
      </root>
    </mxGraphModel>
  </diagram>
</mxfile>
